<?xml version="1.0" encoding="UTF-8"?>
<svg id="katman_2" data-name="katman 2" xmlns="http://www.w3.org/2000/svg" viewBox="0 0 249.77 285.95">
  <defs>
    <style>
      .cls-1 {
        fill: #fff;
      }

      .cls-2 {
        fill: #e67b13;
      }
    </style>
  </defs>
  <g id="katman_1" data-name="katman 1">
    <g>
      <polyline class="cls-2" points="249.74 72.32 185.09 178.53 141.97 178.53 145.81 159.54 206.67 72.32 249.77 72.11"/>
      <polygon class="cls-2" points="149.67 176.65 185.09 178.12 218.39 284.75 175.43 284.75 147.98 191.26 149.67 176.65"/>
      <g>
        <polygon class="cls-2" points="43.07 283.91 43.07 284.95 42.85 284.95 43.07 283.91"/>
        <polygon class="cls-2" points="43.07 72.11 42.85 73.15 42.85 72.11 43.07 72.11"/>
      </g>
      <g>
        <polygon class="cls-2" points="129.09 283.91 129.09 284.95 128.88 284.95 129.09 283.91"/>
        <polygon class="cls-2" points="129.09 72.11 128.88 73.15 128.88 72.11 129.09 72.11"/>
      </g>
      <ellipse class="cls-2" cx="156.63" cy="27.76" rx="28.08" ry="27.74" transform="translate(-2.39 23.8) rotate(-8.63)"/>
      <polyline class="cls-2" points="43.07 71.9 85.89 71.9 68.11 159.13 111.28 159.54 129.16 71.9 171.94 71.9 128.88 284.75 86.02 284.75 105.02 190.84 61.88 190.84 43.09 283.7 42.88 284.75 0 284.75 43.07 71.9"/>
    </g>
    <polygon class="cls-1" points="86.02 285.95 84.82 284.51 127.9 71.88 129.08 70.91 171.94 70.7 173.14 72.14 130.07 284.98 128.88 285.95 86.02 285.95"/>
  </g>
</svg>